# xmcd CD database file
#
# Track frame offsets:
#	150
#	37475
#	57914
#	96444
#	132209
#	175144
#	220945
#	246634
#
# Disc length: 3788 seconds
#
# Revision: 1
# Processed by: cddbd v1.5.2PL0 Copyright (c) Steve Scherf et al.
# Submitted via: CDex 1.51
#
DISCID=7e0eca08
DTITLE=Deuter - Koyasan
DYEAR=2006
DGENRE=New Age
TTITLE0=Kindred Spirit
TTITLE1=Hands Of Love
TTITLE2=Le Velour, Le Satin Et La Soie
TTITLE3=Lovesong From The Mountains
TTITLE4=Sound Of Invisible Waters
TTITLE5=Language Of Silence
TTITLE6=Vollmond Im Herbst
TTITLE7=Scape From Gravity
EXTD=YEAR: 2006
EXTT0=
EXTT1=
EXTT2=
EXTT3=
EXTT4=
EXTT5=
EXTT6=
EXTT7=
PLAYORDER=
